<svg xmlns="http://www.w3.org/2000/svg" xmlns:xlink="http://www.w3.org/1999/xlink" id="Capa_1" x="0" y="0" version="1.1" viewBox="0 0 1417.32 1984.25" style="enable-background:new 0 0 1417.32 1984.25" xml:space="preserve"><style type="text/css">.st0{fill:#fff}</style><g><path d="M526.94,323.21c2.01,2.29,3.96,4.64,6.03,6.88c20.44,22.13,45.81,35.24,75.24,40.83 c2.55,0.48,5.15,0.73,7.77,0.62c1.38-0.06,2.65-0.39,3.86-1c2.46-1.25,3.16-3.21,1.92-5.7c-2.21-4.45-5.9-7.58-9.78-10.45 c-7.56-5.58-15.85-10.09-23.32-15.82c-18.86-14.44-33.83-31.92-40.83-54.97c-7.77-25.59-5.8-50.33,8.77-73.4 c0.44-0.7,0.71-1.61,1.98-2.03c-0.55,3.14-1.12,6.09-1.58,9.05c-3.18,20.66-2.23,40.87,6.76,60.18 c6.9,14.81,17.77,26.15,31.19,35.16c16.13,10.82,33.89,17.79,52.89,21.73c1.82,0.38,2.11-0.3,1.99-1.77 c-1.68-21.02,6.39-38.45,19.83-53.93c2.28-2.63,4.65-5.16,7.16-7.57c0.15-0.15,0.37-0.23,0.57-0.34c0.65,0.65,0.12,1.2-0.06,1.75 c-2.76,8.38-6.44,16.45-8.44,25.09c-2.77,12.01-3.12,23.91,1.4,35.58c5.01,12.94,14.35,21.94,26.55,28.06 c11.51,5.78,23.87,8.35,36.66,9.47c18.26,1.6,35.78-2.18,53.29-6.46c11.49-2.8,22.94-5.88,34.71-7.24 c16.59-1.91,32.76-0.04,48.33,6.21c2.34,0.94,4.68,1.91,7.02,2.85c1.02,0.41,2.15,0.57,2.76-0.48c0.71-1.23-0.42-1.83-1.26-2.41 c-12.3-8.51-25.84-13.79-40.74-15.43c-14.12-1.55-28.03-0.12-41.81,3.05c-11.99,2.76-23.93,5.78-36.02,8 c-20.12,3.68-39.75,1.88-57.87-8.2c-14.53-8.09-22.02-20.92-23.17-37.54c-1.09-15.82,4.28-29.56,13.13-42.25 c2.89-4.14,5.89-8.2,8.28-12.68c6.85-12.84,6.05-25.28-1.82-37.37c-1.55-2.38-3.14-4.75-4.92-6.96c-4.5-5.58-6.63-11.86-6.55-19.04 c0.11-10.1-2.31-19.58-8.17-27.92c-7.23-10.3-17.24-15.66-29.85-16.17c-15.26-0.61-28.86,4.29-41.54,12.33 c-0.71,0.45-1.43,1.44-2.24,1.03c-0.95-0.48-0.59-1.7-0.59-2.61c0.05-12.21-1.11-24.24-5.18-35.86 c-3.17-9.03-8.21-16.82-15.21-23.38c-1.33-1.24-1.97-1.13-2.77,0.42c-2.97,5.71-4.14,11.87-4.62,18.2 c-1.05,13.91,4.57,25.14,13.97,34.9c1.86,1.93,3.46,4.11,4.59,6.58c0.44,0.96,0.73,2.03,0.02,2.92c-0.82,1.02-1.94,0.46-2.85,0.09 c-9.48-3.84-18.21-8.82-24.51-17.16c-1.03-1.37-2.03-0.87-3.09-0.54c-7.41,2.33-14.37,5.7-21.24,9.26 c-9.21,4.76-17.84,10.46-26.24,16.5c-0.66,0.48-1.23,1.25-2.5,1.04c1.57-4.26,3.99-7.89,6.86-11.21 c10.65-12.3,24.04-20.54,39.17-26.13c2.01-0.74,2.61-1.48,2.44-3.85c-0.92-13.48,0.19-26.67,7.4-38.62 c5.25-8.7,10.74-9.97,19.25-4.38c11.23,7.37,18.4,18,23.8,30c0.94,2.08,1.84,4.21,2.48,6.39c0.5,1.71,1.3,1.78,2.77,1.28 c6.6-2.22,13.39-3.68,20.31-4.41c12.49-1.31,24.72,0.09,36.65,4.04c1.18,0.39,2.12,0.53,3.26-0.34 c15.28-11.53,31.44-21.69,48.18-30.95c3.41-1.89,5.93-4.28,7.58-8.03c3.78-8.59,9.98-14.67,19.57-16.62 c9.28-1.9,19.9,2.41,24.98,10.38c1,1.57,2.22,2.28,3.94,2.59c4.43,0.8,8.82,1.77,13.08,3.22c1,0.34,2.36,0.54,2.38,1.93 c0.03,1.29-1.17,1.8-2.14,2.3c-3.46,1.75-7.09,3.16-10.81,4.17c-5.68,1.54-7.98,5.28-8.31,10.87c-0.61,10.13-2.07,20.09-7.18,29.12 c-6.57,11.6-15.59,20.17-28.99,23.29c-0.76,0.18-1.56,0.22-2.33,0.35c-0.69,0.11-1.37,0.26-2.31,0.44 c4.39,3.86,8.82,6.57,14.77,6.8c10.32,0.41,13.76,9.18,14.24,15.74c0.4,5.54-0.43,10.87-3.29,15.73c-0.68,1.17-0.1,1.94,0.46,2.79 c3.73,5.61,8.65,10.06,14.04,13.96c16.24,11.73,34.27,19.4,53.95,23.14c7.9,1.5,15.85,1.48,23.77-0.02 c21.53-4.07,37.84,11.98,39.68,30.3c0.57,5.66-0.08,11.1-2.02,16.27c-4.5,11.95-2.34,23.24,2.71,34.35 c2.84,6.24,6.17,12.35,7.01,19.26c1.02,8.44-0.09,16.4-6.78,22.63c-2.13,1.99-4.64,3.28-7.39,4.08c-1.12,0.33-1.79,0.91-2.06,2.01 c-3,11.86-11.62,16.77-22.86,17.32c-9.31,0.46-18.04,2.51-26.6,5.99c-11.86,4.84-24.02,8.71-36.78,10.49 c-5.94,0.83-11.89,1.37-17.88,1.74c-8.62,0.54-17.2,0.14-25.77-0.58c-9.28-0.78-18.48-2.22-27.49-4.59 c-2.1-0.55-3.69-0.26-5.46,1.02c-15.1,10.92-30.21,21.82-45.41,32.6c-13.25,9.39-27.16,17.62-42.88,22.31 c-9.28,2.77-18.77,4.15-28.46,4.14c-11.14-0.01-22.28,0.06-33.43-0.02c-18.11-0.13-35.91-12.98-41.2-29.66 c-1.2-3.78-1.86-7.65-1.85-11.63c0.02-12.55,0-25.1,0.02-37.66c0-0.75-0.4-1.8,0.4-2.17c0.84-0.4,1.3,0.66,1.89,1.12 c17.03,13.28,35.9,22.55,57.37,26.03c4.91,0.79,9.89,1.13,14.84,0.11c2.5-0.52,5.35-1.16,5.91-4c0.57-2.88-2.14-4.18-4.17-5.44 c-7.03-4.33-14.95-6.74-22.39-10.2c-14.43-6.71-27.85-14.91-38.91-26.53c-8.88-9.33-15.16-20.12-18.15-32.72 c-0.11-0.44-0.11-0.91-0.17-1.37C526.65,323.38,526.79,323.3,526.94,323.21z M791.03,274.72c-1.05-2.74-2.78-5.03-3.27-7.9 c-0.73-4.26,2.3-7.44,6.62-6.84c1.42,0.2,2.76,0.66,4.04,1.29c4.73,2.33,8.73,5.61,12.38,9.37c1.86,1.92,3.37,4.16,5.22,6.12 c-0.1-3.93-1.6-7.29-3.59-10.41c-4.74-7.41-10.45-13.71-19.61-15.54c-3.57-0.71-6.95-0.22-9.66,2.48 c-3.55,3.54-3.77,7.94-2.38,12.32C782.34,270.52,786.21,273.25,791.03,274.72z M746.12,119.54c-1.57,3.64-2.97,6.54-5.01,9.09 c-7.74,9.64-18.4,13.35-30.16,14.91c-3.7,0.49-7.43,0.44-11.82,0.42C718.88,152.84,743.94,139.81,746.12,119.54z M867.04,280.43 c1.83-6.2,1.84-6.19,6.07-11.41c1.86-2.3,3.18-4.87,3.74-7.79c0.54-2.84-0.81-6.21-2.66-6.76c-2.13-0.64-4.64,1.06-5.85,4.11 C865.55,265.62,864.5,272.8,867.04,280.43z M760.99,90.23c0.03,2.69,1.94,4.62,4.57,4.63c2.53,0.01,4.7-2.09,4.71-4.58 c0.01-2.68-2.06-4.71-4.8-4.69C762.74,85.6,760.96,87.45,760.99,90.23z" class="st0"/><path d="M636.59,196.19c-0.02-5.09,1.64-9.29,6.47-11.67c5.39-2.65,10.88-3.19,15.85,0.68 c7.06,5.51,10.16,12.84,8.83,21.85c-0.06,0.44,0.09,1.03-0.51,1.18c-0.58,0.15-0.79-0.41-1.07-0.77c-1.7-2.18-3.53-4.24-5.56-6.12 c-0.91-0.85-1.45-1.19-2.16,0.38c-2.59,5.74-9.62,8.54-15.53,6.33c-4.61-1.72-5.78-5.66-6.31-9.98 C636.53,197.45,636.59,196.82,636.59,196.19z" class="st0"/></g></svg>